<?xml version="1.0" standalone="no"?>
<!DOCTYPE svg PUBLIC "-//W3C//DTD SVG 20010904//EN"
 "http://www.w3.org/TR/2001/REC-SVG-20010904/DTD/svg10.dtd">
<svg version="1.0" xmlns="http://www.w3.org/2000/svg"
 width="288.000000pt" height="288.000000pt" viewBox="0 0 288.000000 288.000000"
 preserveAspectRatio="xMidYMid meet">
<metadata>
Created by potrace 1.14, written by Peter Selinger 2001-2017
</metadata>
<g transform="translate(0.000000,288.000000) scale(0.100000,-0.100000)"
fill="#000000" stroke="none">
<path d="M1512 2706 c-54 -60 -92 -131 -111 -210 -12 -50 -17 -229 -6 -246 10
-16 -8 -12 -149 35 -165 56 -267 71 -366 56 -40 -6 -85 -18 -101 -27 -27 -14
-34 -13 -102 15 -39 16 -128 52 -197 80 -69 27 -177 72 -240 100 -131 57 -122
59 -167 -37 l-25 -54 38 -41 c21 -23 114 -118 206 -212 l167 -170 -25 -70
c-33 -91 -54 -200 -54 -285 0 -38 -4 -71 -9 -74 -5 -3 -80 -22 -168 -41 -87
-19 -168 -37 -181 -40 -16 -4 -22 -13 -22 -34 0 -27 4 -30 43 -36 77 -12 351
-66 359 -71 4 -3 8 -12 8 -21 0 -30 74 -189 126 -270 l53 -81 -28 -44 c-14
-24 -53 -90 -85 -148 -33 -58 -75 -131 -94 -163 -19 -32 -32 -60 -30 -62 2 -2
52 33 111 78 150 115 235 177 251 183 8 3 29 -8 47 -24 77 -67 201 -141 300
-180 157 -61 227 -72 409 -68 155 4 231 19 331 66 25 11 32 9 89 -31 34 -24
72 -51 84 -59 11 -8 83 -59 159 -113 77 -54 141 -96 144 -93 3 3 -52 98 -123
212 l-128 207 40 30 c106 82 232 231 300 357 10 19 22 37 26 40 4 3 116 26
248 50 l241 44 -3 135 -3 134 -195 43 c-107 24 -196 44 -197 44 -2 0 -3 20 -3
44 0 100 -47 278 -101 381 l-21 40 87 155 c49 85 103 180 121 210 52 87 58 90
-160 -77 -197 -152 -174 -142 -232 -102 -87 60 -147 78 -255 79 -120 0 -191
-13 -301 -56 -47 -18 -105 -36 -127 -40 l-41 -7 0 51 c0 154 58 273 175 359
l30 22 -46 46 -46 46 -51 -55z m-236 -1151 c28 -23 55 -59 76 -103 55 -111 42
-242 -23 -242 -24 0 -103 98 -140 175 -47 97 -35 205 23 205 12 0 40 -16 64
-35z m428 20 c46 -47 23 -150 -62 -275 -45 -66 -64 -86 -84 -88 -43 -5 -61 33
-56 120 5 102 43 175 122 236 34 26 59 28 80 7z"/>
</g>
</svg>
